<?xml version="1.0" encoding="UTF-8"?>
<svg width="74px" height="65px" viewBox="0 0 74 65" version="1.1" xmlns="http://www.w3.org/2000/svg" xmlns:xlink="http://www.w3.org/1999/xlink">
    <title>texto copy</title>
    <g id="texto-copy" stroke="none" stroke-width="1" fill="none" fill-rule="evenodd">
        <g id="Group" transform="translate(7.000000, 2.000000)" fill="#FFFFFF" fill-rule="nonzero">
            <path d="M41.7969817,25.5524165 C41.7969817,21.0891165 40.2152817,17.2757165 37.0519817,14.1124165 C33.8886817,10.9491165 30.0536817,9.34571649 25.5469817,9.30241649 C21.0402817,9.25911649 17.2052817,10.8624165 14.0419817,14.1124165 C10.8786817,17.3624165 9.29698167,21.1757165 9.29698167,25.5524165 C9.29698167,29.9291165 10.8786817,33.7641165 14.0419817,37.0574165 C17.2052817,40.3507165 21.0402817,41.9324165 25.5469817,41.8024165 C30.0536817,41.6724165 33.8886817,40.0907165 37.0519817,37.0574165 C40.2152817,34.0241165 41.7969817,30.1891165 41.7969817,25.5524165 Z M60.3869817,55.7774165 C60.3869817,57.0341165 59.9102817,58.1174165 58.9569817,59.0274165 C58.0036817,59.9374165 56.8986817,60.3924165 55.6419817,60.3924165 C54.3852817,60.3924165 53.3236817,59.9374165 52.4569817,59.0274165 L40.0419817,46.6124165 C35.7086817,49.6024165 30.8769817,51.0974165 25.5469817,51.0974165 C22.0802817,51.0974165 18.7652817,50.4257165 15.6019817,49.0824165 C12.4386817,47.7391165 9.73028167,45.9191165 7.47697167,43.6224165 C5.22363167,41.3257165 3.40363167,38.6174165 2.01697167,35.4974165 C0.630301672,32.3774165 -0.041363328,29.0624165 0.00196967198,25.5524165 C0.045303672,22.0424165 0.716971672,18.7491165 2.01697167,15.6724165 C3.31697167,12.5957165 5.13697167,9.86571649 7.47697167,7.48242649 C9.81698167,5.09909649 12.5252817,3.27909649 15.6019817,2.02242649 C18.6786817,0.765766489 21.9936817,0.0940964887 25.5469817,0.00742848868 C29.1002817,-0.0792375113 32.4152817,0.592426489 35.4919817,2.02242649 C38.5686817,3.45242649 41.2769817,5.27242649 43.6169817,7.48242649 C45.9569817,9.69241649 47.7769817,12.4224165 49.0769817,15.6724165 C50.3769817,18.9224165 51.0486817,22.2157165 51.0919817,25.5524165 C51.0919817,30.8824165 49.5969817,35.7141165 46.6069817,40.0474165 L59.0219817,52.4624165 C59.9319817,53.3724165 60.3869817,54.4774165 60.3869817,55.7774165 Z" id="Shape"></path>
        </g>
    </g>
</svg>