<?xml version="1.0" encoding="UTF-8"?>
<svg width="74px" height="65px" viewBox="0 0 74 65" version="1.1" xmlns="http://www.w3.org/2000/svg" xmlns:xlink="http://www.w3.org/1999/xlink">
    <title>texto</title>
    <g id="texto" stroke="none" stroke-width="1" fill="none" fill-rule="evenodd">
        <g id="Group" fill="#FFFFFF" fill-rule="nonzero">
            <path d="M72.994979,33.085 L66.819979,24.44 C66.689979,24.31 66.538379,24.2233 66.364979,24.18 C66.191679,24.1367 66.018379,24.18 65.844979,24.31 L62.074979,26.975 C61.944979,27.105 61.858379,27.2567 61.814979,27.43 C61.771679,27.6033 61.814979,27.7767 61.944979,27.95 L68.119979,36.595 C68.249979,36.7683 68.401679,36.8767 68.574979,36.92 C68.748379,36.92 68.921679,36.8767 69.094979,36.79 L72.799979,34.125 C72.973379,33.995 73.081679,33.8433 73.124979,33.67 C73.168379,33.4533 73.124979,33.2583 72.994979,33.085 Z M33.994979,54.34 L44.004979,54.6 L37.049979,44.85 L33.994979,54.34 Z M53.299979,33.215 L53.299979,3.835 C53.299979,2.795 52.909979,1.90667 52.129979,1.17 C51.393379,0.39 50.504979,0 49.464979,0 L3.834999,0 C2.794999,0 1.884999,0.39 1.104999,1.17 C0.368334,1.90667 -1.60982339e-15,2.795 -1.60982339e-15,3.835 L-1.60982339e-15,61.165 C-1.60982339e-15,62.205 0.368334,63.0933 1.104999,63.83 C1.884999,64.61 2.794999,65 3.834999,65 L49.464979,65 C50.504979,65 51.393379,64.61 52.129979,63.83 C52.909979,63.0933 53.299979,62.205 53.299979,61.165 L53.299979,47.97 L67.079979,38.155 L60.124979,28.405 L53.299979,33.215 Z M51.219979,34.71 L38.024979,44.07 L45.044979,53.885 L51.219979,49.465 L51.219979,61.165 C51.219979,61.6417 51.046679,62.0533 50.699979,62.4 C50.353379,62.7467 49.941679,62.92 49.464979,62.92 L3.834999,62.92 C3.358329,62.92 2.946669,62.7467 2.599999,62.4 C2.253329,62.0533 2.079999,61.6417 2.079999,61.165 L2.079999,3.835 C2.079999,3.35833 2.253329,2.94666 2.599999,2.6 C2.946669,2.25333 3.358329,2.08 3.834999,2.08 L49.464979,2.08 C49.941679,2.08 50.353379,2.25333 50.699979,2.6 C51.046679,2.94666 51.219979,3.35833 51.219979,3.835 L51.219979,34.71 Z M26.194979,10.53 L45.109979,10.53 C45.239979,10.53 45.348379,10.4867 45.434979,10.4 C45.564979,10.27 45.629979,10.14 45.629979,10.01 C45.629979,9.88 45.564979,9.7717 45.434979,9.685 C45.348379,9.555 45.239979,9.49 45.109979,9.49 L26.194979,9.49 C26.064979,9.49 25.934979,9.555 25.804979,9.685 C25.718379,9.7717 25.674979,9.88 25.674979,10.01 C25.674979,10.14 25.718379,10.27 25.804979,10.4 C25.934979,10.4867 26.064979,10.53 26.194979,10.53 Z M26.194979,17.29 L45.109979,17.29 C45.239979,17.29 45.348379,17.2467 45.434979,17.16 C45.564979,17.03 45.629979,16.9 45.629979,16.77 C45.629979,16.64 45.564979,16.5317 45.434979,16.445 C45.348379,16.315 45.239979,16.25 45.109979,16.25 L26.194979,16.25 C26.064979,16.25 25.934979,16.315 25.804979,16.445 C25.718379,16.5317 25.674979,16.64 25.674979,16.77 C25.674979,16.9 25.718379,17.03 25.804979,17.16 C25.934979,17.2467 26.064979,17.29 26.194979,17.29 Z M46.864979,24.57 L7.344999,24.57 C7.171669,24.57 7.084999,24.6783 7.084999,24.895 C7.084999,25.0683 7.171669,25.155 7.344999,25.155 L46.864979,25.155 C47.081679,25.155 47.189979,25.0683 47.189979,24.895 C47.189979,24.6783 47.081679,24.57 46.864979,24.57 Z M46.864979,28.08 L7.344999,28.08 C7.171669,28.08 7.084999,28.1667 7.084999,28.34 C7.084999,28.5133 7.171669,28.6 7.344999,28.6 L46.864979,28.6 C47.038379,28.6 47.124979,28.5133 47.124979,28.34 C47.124979,28.1667 47.038379,28.08 46.864979,28.08 Z M46.864979,31.59 L7.344999,31.59 C7.171669,31.59 7.084999,31.6767 7.084999,31.85 C7.084999,32.0233 7.171669,32.11 7.344999,32.11 L46.864979,32.11 C47.038379,32.11 47.124979,32.0233 47.124979,31.85 C47.124979,31.6767 47.038379,31.59 46.864979,31.59 Z M46.864979,35.1 L7.344999,35.1 C7.171669,35.1 7.084999,35.1867 7.084999,35.36 C7.084999,35.5333 7.171669,35.62 7.344999,35.62 L46.864979,35.62 C47.038379,35.62 47.124979,35.5333 47.124979,35.36 C47.124979,35.1867 47.038379,35.1 46.864979,35.1 Z M42.639979,38.545 L7.344999,38.545 C7.171669,38.545 7.084999,38.6533 7.084999,38.87 C7.084999,39.0433 7.171669,39.13 7.344999,39.13 L42.639979,39.13 C42.856679,39.13 42.964979,39.0433 42.964979,38.87 C42.964979,38.6533 42.856679,38.545 42.639979,38.545 Z M37.764979,42.64 C37.938379,42.64 38.024979,42.5533 38.024979,42.38 C38.024979,42.2067 37.938379,42.12 37.764979,42.12 L7.344999,42.12 C7.171669,42.12 7.084999,42.2067 7.084999,42.38 C7.084999,42.5533 7.171669,42.64 7.344999,42.64 L37.764979,42.64 Z M7.344999,46.15 L34.254979,46.15 C34.428379,46.15 34.514979,46.0633 34.514979,45.89 C34.514979,45.7167 34.428379,45.63 34.254979,45.63 L7.344999,45.63 C7.171669,45.63 7.084999,45.7167 7.084999,45.89 C7.084999,46.0633 7.171669,46.15 7.344999,46.15 Z M7.344999,49.595 L32.824979,49.595 C32.998379,49.595 33.084979,49.5083 33.084979,49.335 C33.084979,49.1617 32.998379,49.075 32.824979,49.075 L7.344999,49.075 C7.171669,49.075 7.084999,49.1617 7.084999,49.335 C7.084999,49.5083 7.171669,49.595 7.344999,49.595 Z M7.344999,53.105 L31.459979,53.105 C31.633379,53.105 31.719979,53.0183 31.719979,52.845 C31.719979,52.6717 31.633379,52.585 31.459979,52.585 L7.344999,52.585 C7.171669,52.585 7.084999,52.6717 7.084999,52.845 C7.084999,53.0183 7.171669,53.105 7.344999,53.105 Z M7.344999,56.615 L46.864979,56.615 C47.038379,56.615 47.124979,56.5283 47.124979,56.355 C47.124979,56.1817 47.038379,56.095 46.864979,56.095 L7.344999,56.095 C7.171669,56.095 7.084999,56.1817 7.084999,56.355 C7.084999,56.5283 7.171669,56.615 7.344999,56.615 Z M46.864979,59.54 L7.344999,59.54 C7.171669,59.54 7.084999,59.6267 7.084999,59.8 C7.084999,59.9733 7.171669,60.06 7.344999,60.06 L46.864979,60.06 C47.038379,60.06 47.124979,59.9733 47.124979,59.8 C47.124979,59.6267 47.038379,59.54 46.864979,59.54 Z M14.364979,17.615 C15.318379,17.615 16.206679,17.355 17.029979,16.835 C17.853379,16.315 18.438379,15.6217 18.784979,14.755 C19.174979,13.845 19.261679,12.9133 19.044979,11.96 C18.871679,11.0067 18.438379,10.205 17.744979,9.555 C17.094979,8.86167 16.293379,8.42833 15.339979,8.255 C14.386679,8.03833 13.454979,8.125 12.544979,8.515 C11.678379,8.86167 10.984979,9.44667 10.464979,10.27 C9.944979,11.0933 9.684979,11.9817 9.684979,12.935 C9.684979,14.235 10.139979,15.34 11.049979,16.25 C11.959979,17.16 13.064979,17.615 14.364979,17.615 Z M14.364979,10.855 C14.711679,10.855 15.036679,10.9633 15.339979,11.18 C15.643379,11.3533 15.859979,11.6133 15.989979,11.96 C16.119979,12.3067 16.141679,12.6533 16.054979,13 C16.011679,13.3467 15.859979,13.65 15.599979,13.91 C15.339979,14.1267 15.014979,14.2783 14.624979,14.365 C14.278379,14.4083 13.931679,14.365 13.584979,14.235 C13.281679,14.0617 13.043379,13.8233 12.869979,13.52 C12.696679,13.2167 12.609979,12.8917 12.609979,12.545 C12.609979,12.0683 12.761679,11.6783 13.064979,11.375 C13.411679,11.0283 13.823379,10.855 14.299979,10.855 L14.364979,10.855 Z M14.364979,20.085 C15.664979,20.085 16.856679,19.76 17.939979,19.11 C19.066679,18.46 19.954979,17.5933 20.604979,16.51 C21.254979,15.3833 21.579979,14.17 21.579979,12.87 C21.579979,11.57 21.254979,10.3783 20.604979,9.295 C19.954979,8.16833 19.066679,7.28 17.939979,6.63 C16.856679,5.98 15.664979,5.655 14.364979,5.655 C13.064979,5.655 11.851679,5.98 10.724979,6.63 C9.641679,7.28 8.774999,8.16833 8.124999,9.295 C7.474999,10.3783 7.149999,11.57 7.149999,12.87 C7.149999,14.17 7.474999,15.3833 8.124999,16.51 C8.774999,17.5933 9.641679,18.46 10.724979,19.11 C11.851679,19.76 13.064979,20.085 14.364979,20.085 Z M14.364979,7.54 C15.838379,7.54 17.094979,8.08167 18.134979,9.165 C19.218379,10.205 19.759979,11.4617 19.759979,12.935 C19.759979,14.4083 19.218379,15.6867 18.134979,16.77 C17.094979,17.81 15.838379,18.33 14.364979,18.33 C12.891679,18.33 11.613379,17.81 10.529979,16.77 C9.489999,15.6867 8.969999,14.4083 8.969999,12.935 C8.969999,11.4183 9.489999,10.14 10.529979,9.1 C11.569979,8.01667 12.848379,7.475 14.364979,7.475 L14.364979,7.54 Z" id="Shape"></path>
        </g>
    </g>
</svg>