<?xml version="1.0" encoding="UTF-8"?>
<svg width="211px" height="41px" viewBox="0 0 211 41" version="1.1" xmlns="http://www.w3.org/2000/svg" xmlns:xlink="http://www.w3.org/1999/xlink">
    <title>Group</title>
    <g id="Page-1" stroke="none" stroke-width="1" fill="none" fill-rule="evenodd">
        <g id="Artboard" fill="#FFFFFF" fill-rule="nonzero">
            <g id="Group">
                <path d="M3.239003,20.5 C3.239003,18.1493 3.690003,15.908 4.592003,13.776 C5.521333,11.6167 6.819663,9.717 8.487003,8.077 C10.154323,6.437 12.081323,5.19333 14.268023,4.346 C15.771323,3.74467 17.329323,3.362 18.942023,3.198 L18.942023,0 C17.356623,0.136667 15.798623,0.451 14.268023,0.943 C11.452623,1.845 8.965333,3.26633 6.806003,5.207 C4.674003,7.14767 3.006663,9.44367 1.804003,12.095 C0.601333,14.7463 3.55271368e-15,17.548 3.55271368e-15,20.5 C3.55271368e-15,23.452 0.601333,26.2537 1.804003,28.905 C3.006663,31.5563 4.674003,33.8523 6.806003,35.793 C8.965333,37.7337 11.452623,39.155 14.268023,40.057 C15.771323,40.549 17.315623,40.8633 18.901023,41 L18.901023,37.843 C17.315623,37.679 15.771323,37.31 14.268023,36.736 C12.081323,35.8613 10.154323,34.604 8.487003,32.964 C6.819663,31.324 5.521333,29.438 4.592003,27.306 C3.690003,25.1467 3.239003,22.878 3.239003,20.5 Z M9.676003,21.935 L18.860023,16.195 L18.819023,23.944 L22.304023,23.944 L22.304023,20.787 C23.178623,21.033 24.012323,21.1833 24.805023,21.238 C25.925623,21.3473 26.882323,21.2517 27.675023,20.951 C28.057623,20.7597 28.440323,20.582 28.823023,20.418 C29.998323,19.8987 30.777323,19.885 31.160023,20.377 C31.378623,20.623 31.474323,21.115 31.447023,21.853 L31.447023,22.058 C31.392323,23.124 31.132623,24.149 30.668023,25.133 C30.230623,26.117 29.615623,26.978 28.823023,27.716 C27.811623,28.7273 26.609023,29.561 25.215023,30.217 C24.012323,30.7637 22.987323,31.0507 22.140023,31.078 L22.099023,35.301 C24.531623,35.0823 26.773023,34.3307 28.823023,33.046 C30.791023,31.7887 32.335323,30.217 33.456023,28.331 C34.850023,25.953 35.560623,23.124 35.588023,19.844 C35.342023,18.614 34.836323,17.6163 34.071023,16.851 C33.360323,16.1677 32.526623,15.7577 31.570023,15.621 C30.613323,15.457 29.697623,15.5937 28.823023,16.031 L28.454023,16.236 C27.688623,16.8373 26.923323,17.1243 26.158023,17.097 C25.420023,17.0697 24.832323,16.769 24.395023,16.195 C23.957623,15.621 23.752623,14.842 23.780023,13.858 C23.752623,13.12 23.889323,12.4913 24.190023,11.972 C24.518023,11.4527 24.941623,11.0973 25.461023,10.906 C25.980323,10.6873 26.513323,10.66 27.060023,10.824 C27.798023,11.0973 28.385623,11.562 28.823023,12.218 L29.520023,13.161 C29.574623,13.2157 29.602023,13.2157 29.602023,13.161 L29.643023,8.774 C29.561023,8.774 29.287623,8.62367 28.823023,8.323 C27.729623,7.55767 26.773023,7.06567 25.953023,6.847 C24.586323,6.437 23.411023,6.65567 22.427023,7.503 L22.304023,7.667 L22.304023,5.986 C20.226623,5.74 18.176623,5.945 16.154023,6.601 C14.158623,7.22967 12.382023,8.25467 10.824023,9.676 C9.266003,11.07 8.063333,12.7373 7.216003,14.678 C6.396003,16.5913 6.013333,18.6003 6.068003,20.705 C6.040663,23.493 6.792333,26.0897 8.323003,28.495 C9.826323,30.8183 11.808023,32.6087 14.268023,33.866 C15.771323,34.6313 17.356623,35.1233 19.024023,35.342 L19.024023,31.037 C17.466023,30.8183 16.017323,30.2853 14.678023,29.438 C13.366023,28.5907 12.272623,27.5247 11.398023,26.24 C10.523323,24.928 9.949323,23.493 9.676003,21.935 Z M14.268023,10.906 C15.634623,9.89467 17.165323,9.27967 18.860023,9.061 L18.860023,13.243 L9.676003,18.901 C9.867323,17.3157 10.359323,15.826 11.152023,14.432 C11.944623,13.038 12.983323,11.8627 14.268023,10.906 Z M28.823023,1.763 C26.691023,0.806332 24.463323,0.218665 22.140023,0 L22.140023,3.157 C24.654623,3.403 26.978023,4.15467 29.110023,5.412 C31.269323,6.642 33.073323,8.26833 34.522023,10.291 C35.998023,12.2863 36.982023,14.514 37.474023,16.974 C37.993323,19.434 37.979623,21.8803 37.433023,24.313 C36.886323,26.7183 35.861323,28.9187 34.358023,30.914 C32.882023,32.9093 31.037023,34.5083 28.823023,35.711 C26.718323,36.859 24.477023,37.556 22.099023,37.802 L22.099023,41 C25.187623,40.754 28.071323,39.8657 30.750023,38.335 C33.346623,36.8043 35.519623,34.809 37.269023,32.349 C39.045623,29.8343 40.193623,27.06 40.713023,24.026 C41.232323,20.9647 41.068323,17.9443 40.221023,14.965 C39.401023,12.0677 38.020623,9.471 36.080023,7.175 C34.057323,4.82433 31.638323,3.02033 28.823023,1.763 Z" id="Shape"></path>
                <path d="M96.701323,25.434 L94.811323,25.434 L91.001323,35.244 L92.951323,35.244 L93.731323,33.204 L97.751323,33.204 L98.531323,35.244 L100.481323,35.244 L96.701323,25.434 Z M94.421323,31.434 L95.741323,28.044 L97.061323,31.434 L94.421323,31.434 Z M93.221323,18.684 L89.441323,8.87401 L87.551323,8.87401 L83.741323,18.684 L85.721323,18.684 L86.501323,16.644 L90.521323,16.644 L91.271323,18.684 L93.221323,18.684 Z M87.191323,14.844 L88.511323,11.484 L89.831323,14.844 L87.191323,14.844 Z M152.651323,30.474 C152.611323,30.434 152.521323,30.344 152.381323,30.204 L151.361323,29.334 C150.881323,28.954 150.421323,28.534 149.981323,28.074 C149.881323,27.934 149.831323,27.774 149.831323,27.594 C149.831323,27.414 149.911323,27.264 150.071323,27.144 C150.251323,27.024 150.451323,26.964 150.671323,26.964 C151.171323,26.964 151.661323,27.304 152.141323,27.984 L152.291323,27.834 L153.521323,26.754 C153.161323,26.314 152.751323,25.944 152.291323,25.644 L152.081323,25.524 C151.641323,25.304 151.181323,25.194 150.701323,25.194 C149.961323,25.174 149.321323,25.414 148.781323,25.914 C148.521323,26.134 148.321323,26.394 148.181323,26.694 C148.041323,26.994 147.971323,27.314 147.971323,27.654 C147.991323,28.174 148.151323,28.644 148.451323,29.064 C149.051323,29.844 149.741323,30.524 150.521323,31.104 C150.921323,31.404 151.281323,31.744 151.601323,32.124 C151.761323,32.324 151.841323,32.544 151.841323,32.784 C151.841323,33.044 151.741323,33.264 151.541323,33.444 C151.301323,33.644 151.021323,33.734 150.701323,33.714 C150.101323,33.714 149.561323,33.284 149.081323,32.424 L147.521323,33.354 C147.821323,34.014 148.261323,34.564 148.841323,35.004 C149.401323,35.364 150.011323,35.534 150.671323,35.514 C151.251323,35.534 151.791323,35.404 152.291323,35.124 C152.731323,34.884 153.071323,34.544 153.311323,34.104 C153.571323,33.684 153.701323,33.224 153.701323,32.724 C153.701323,32.324 153.621323,31.944 153.461323,31.584 C153.261323,31.164 152.991323,30.794 152.651323,30.474 Z M197.021323,18.684 L198.881323,18.684 L198.881323,8.87401 L197.021323,8.87401 L197.021323,18.684 Z M184.061323,13.314 C184.401323,12.834 184.571323,12.304 184.571323,11.724 C184.571323,11.124 184.421323,10.584 184.121323,10.104 C183.861323,9.66401 183.491323,9.34401 183.011323,9.14401 C182.571323,8.98401 182.121323,8.89401 181.661323,8.87401 L178.721323,8.87401 L178.721323,18.684 L180.581323,18.684 L180.581323,14.514 L180.761323,14.514 L182.981323,18.684 L185.021323,18.684 L182.711323,14.304 C183.271323,14.124 183.721323,13.794 184.061323,13.314 Z M182.381323,12.474 C182.161323,12.594 181.921323,12.664 181.661323,12.684 L180.551323,12.684 L180.551323,10.674 L181.661323,10.674 C181.821323,10.674 181.981323,10.704 182.141323,10.764 C182.301323,10.824 182.441323,10.934 182.561323,11.094 C182.681323,11.254 182.741323,11.424 182.741323,11.604 C182.761323,11.784 182.741323,11.954 182.681323,12.114 C182.621323,12.254 182.521323,12.374 182.381323,12.474 Z M100.181323,13.314 C100.501323,12.814 100.661323,12.274 100.661323,11.694 C100.661323,11.114 100.511323,10.584 100.211323,10.104 C99.951323,9.66401 99.591323,9.34401 99.131323,9.14401 C98.691323,8.98401 98.241323,8.89401 97.781323,8.87401 L94.811323,8.87401 L94.811323,18.684 L96.671323,18.684 L96.671323,14.514 L96.851323,14.514 L97.751323,16.194 L99.041323,18.684 L101.081323,18.684 L98.771323,14.304 C99.351323,14.124 99.821323,13.794 100.181323,13.314 Z M98.501323,12.474 C98.261323,12.614 98.011323,12.684 97.751323,12.684 L96.671323,12.684 L96.671323,10.674 L97.751323,10.674 C97.911323,10.674 98.071323,10.704 98.231323,10.764 C98.391323,10.824 98.531323,10.934 98.651323,11.094 C98.771323,11.254 98.831323,11.434 98.831323,11.634 C98.851323,11.794 98.831323,11.954 98.771323,12.114 C98.711323,12.254 98.621323,12.374 98.501323,12.474 Z M191.201323,10.404 C191.781323,10.424 192.331323,10.554 192.851323,10.794 C193.371323,11.034 193.821323,11.374 194.201323,11.814 L195.521323,10.584 C194.981323,9.94401 194.331323,9.45401 193.571323,9.11401 C192.831323,8.77401 192.051323,8.60401 191.231323,8.60401 C190.271323,8.60401 189.381323,8.83401 188.561323,9.29401 C187.761323,9.73401 187.131323,10.354 186.671323,11.154 C186.211323,11.954 185.981323,12.814 185.981323,13.734 C185.961323,14.434 186.081323,15.114 186.341323,15.774 C186.601323,16.414 186.981323,16.984 187.481323,17.484 C187.981323,17.964 188.551323,18.334 189.191323,18.594 C189.851323,18.834 190.531323,18.944 191.231323,18.924 C191.991323,18.924 192.721323,18.784 193.421323,18.504 C194.201323,18.144 194.891323,17.654 195.491323,17.034 L194.201323,15.714 C193.781323,16.154 193.291323,16.514 192.731323,16.794 C192.211323,17.014 191.671323,17.114 191.111323,17.094 C190.551323,17.074 190.011323,16.934 189.491323,16.674 C188.991323,16.394 188.591323,15.994 188.291323,15.474 C187.991323,14.934 187.851323,14.354 187.871323,13.734 C187.851323,13.294 187.921323,12.874 188.081323,12.474 C188.261323,12.054 188.511323,11.684 188.831323,11.364 C189.151323,11.044 189.511323,10.804 189.911323,10.644 C190.331323,10.484 190.761323,10.404 191.201323,10.404 Z M152.291323,18.924 L152.351323,18.924 C153.031323,18.924 153.681323,18.794 154.301323,18.534 C154.921323,18.274 155.461323,17.904 155.921323,17.424 C156.401323,16.944 156.771323,16.394 157.031323,15.774 C157.291323,15.134 157.421323,14.474 157.421323,13.794 C157.421323,13.114 157.291323,12.454 157.031323,11.814 C156.771323,11.154 156.401323,10.584 155.921323,10.104 C155.461323,9.62401 154.921323,9.25401 154.301323,8.99401 C153.681323,8.73401 153.031323,8.60401 152.351323,8.60401 C151.431323,8.60401 150.571323,8.83401 149.771323,9.29401 C148.991323,9.75401 148.371323,10.384 147.911323,11.184 C147.451323,11.984 147.231323,12.844 147.251323,13.764 C147.231323,14.444 147.341323,15.104 147.581323,15.744 C147.841323,16.364 148.201323,16.924 148.661323,17.424 C149.141323,17.904 149.691323,18.274 150.311323,18.534 C150.951323,18.794 151.611323,18.924 152.291323,18.924 Z M150.011323,11.394 C150.311323,11.074 150.651323,10.834 151.031323,10.674 C151.431323,10.514 151.851323,10.434 152.291323,10.434 C152.731323,10.434 153.141323,10.524 153.521323,10.704 C153.921323,10.864 154.271323,11.104 154.571323,11.424 C154.871323,11.744 155.101323,12.114 155.261323,12.534 C155.441323,12.934 155.531323,13.354 155.531323,13.794 C155.531323,14.234 155.441323,14.664 155.261323,15.084 C155.101323,15.484 154.871323,15.844 154.571323,16.164 C154.291323,16.464 153.951323,16.704 153.551323,16.884 C153.171323,17.044 152.771323,17.124 152.351323,17.124 C151.551323,17.144 150.851323,16.894 150.251323,16.374 C149.851323,16.054 149.551323,15.674 149.351323,15.234 C149.151323,14.774 149.061323,14.294 149.081323,13.794 C149.061323,13.354 149.131323,12.924 149.291323,12.504 C149.451323,12.084 149.691323,11.714 150.011323,11.394 Z M56.201323,10.404 C56.781323,10.404 57.331323,10.534 57.851323,10.794 C58.391323,11.034 58.851323,11.374 59.231323,11.814 L60.521323,10.584 C59.981323,9.94401 59.331323,9.45401 58.571323,9.11401 C57.831323,8.77401 57.061323,8.60401 56.261323,8.60401 C55.301323,8.60401 54.411323,8.82401 53.591323,9.26401 C52.771323,9.70401 52.131323,10.324 51.671323,11.124 C51.211323,11.924 50.991323,12.794 51.011323,13.734 C50.991323,14.434 51.101323,15.104 51.341323,15.744 C51.601323,16.384 51.981323,16.954 52.481323,17.454 C52.981323,17.954 53.551323,18.334 54.191323,18.594 C54.851323,18.834 55.531323,18.944 56.231323,18.924 C56.971323,18.924 57.691323,18.784 58.391323,18.504 C59.171323,18.144 59.861323,17.654 60.461323,17.034 L59.201323,15.714 C58.761323,16.154 58.261323,16.514 57.701323,16.794 C57.221323,17.014 56.721323,17.114 56.201323,17.094 C55.601323,17.094 55.031323,16.954 54.491323,16.674 C53.971323,16.394 53.561323,15.994 53.261323,15.474 C52.961323,14.934 52.821323,14.354 52.841323,13.734 C52.821323,13.294 52.891323,12.874 53.051323,12.474 C53.231323,12.054 53.481323,11.684 53.801323,11.364 C54.121323,11.044 54.491323,10.804 54.911323,10.644 C55.331323,10.464 55.761323,10.384 56.201323,10.404 Z M209.201323,10.104 C208.721323,9.62401 208.171323,9.25401 207.551323,8.99401 C206.931323,8.71401 206.281323,8.58401 205.601323,8.60401 C204.681323,8.62401 203.831323,8.86401 203.051323,9.32401 C202.271323,9.78401 201.651323,10.414 201.191323,11.214 C200.751323,11.994 200.531323,12.844 200.531323,13.764 C200.511323,14.444 200.621323,15.104 200.861323,15.744 C201.121323,16.364 201.481323,16.924 201.941323,17.424 C202.421323,17.904 202.981323,18.284 203.621323,18.564 C204.261323,18.824 204.921323,18.944 205.601323,18.924 L205.661323,18.924 C206.341323,18.924 206.991323,18.794 207.611323,18.534 C208.231323,18.274 208.771323,17.904 209.231323,17.424 C209.711323,16.944 210.081323,16.394 210.341323,15.774 C210.601323,15.134 210.731323,14.474 210.731323,13.794 C210.731323,13.094 210.601323,12.424 210.341323,11.784 C210.081323,11.144 209.701323,10.584 209.201323,10.104 Z M207.881323,16.164 C207.581323,16.484 207.231323,16.724 206.831323,16.884 C206.451323,17.044 206.041323,17.124 205.601323,17.124 C204.821323,17.124 204.131323,16.874 203.531323,16.374 C203.151323,16.054 202.861323,15.674 202.661323,15.234 C202.461323,14.774 202.371323,14.294 202.391323,13.794 C202.371323,13.354 202.441323,12.924 202.601323,12.504 C202.761323,12.084 202.991323,11.714 203.291323,11.394 C203.591323,11.074 203.941323,10.834 204.341323,10.674 C204.741323,10.514 205.161323,10.444 205.601323,10.464 C206.021323,10.464 206.421323,10.554 206.801323,10.734 C207.201323,10.894 207.551323,11.134 207.851323,11.454 C208.171323,11.754 208.411323,12.114 208.571323,12.534 C208.731323,12.934 208.811323,13.354 208.811323,13.794 C208.831323,14.234 208.751323,14.664 208.571323,15.084 C208.411323,15.484 208.181323,15.844 207.881323,16.164 Z M68.621323,5.48401 L66.431323,5.48401 L66.101323,6.08401 L64.871323,8.09401 L66.161323,8.09401 L68.621323,5.48401 Z M65.171323,8.87401 L61.361323,18.654 L63.311323,18.654 L64.091323,16.644 L68.111323,16.644 L68.861323,18.684 L70.811323,18.684 L67.031323,8.87401 L65.171323,8.87401 Z M64.781323,14.844 L66.101323,11.484 L67.421323,14.844 L64.781323,14.844 Z M79.631323,8.87401 L77.321323,15.714 L75.011323,8.87401 L73.211323,8.87401 L71.531323,18.654 L73.361323,18.654 L74.441323,12.474 L76.511323,18.654 L78.131323,18.654 L80.231323,12.474 L81.281323,18.654 L83.081323,18.654 L81.431323,8.87401 L79.631323,8.87401 Z M169.721323,29.904 C170.061323,29.404 170.221323,28.854 170.201323,28.254 C170.221323,27.674 170.081323,27.144 169.781323,26.664 C169.521323,26.224 169.151323,25.904 168.671323,25.704 C168.231323,25.544 167.781323,25.454 167.321323,25.434 C167.041323,25.414 166.721323,25.404 166.361323,25.404 L164.381323,25.404 L164.381323,35.214 L166.241323,35.214 L166.241323,31.104 L166.421323,31.104 L168.641323,35.244 L170.681323,35.244 L168.341323,30.894 C168.901323,30.714 169.361323,30.384 169.721323,29.904 Z M168.041323,29.034 C167.801323,29.174 167.551323,29.244 167.291323,29.244 C167.131323,29.244 166.971323,29.244 166.811323,29.244 L166.211323,29.244 L166.211323,27.264 L167.291323,27.264 C167.451323,27.284 167.621323,27.324 167.801323,27.384 C167.981323,27.424 168.121323,27.534 168.221323,27.714 C168.341323,27.874 168.401323,28.054 168.401323,28.254 C168.421323,28.574 168.301323,28.834 168.041323,29.034 Z M167.111323,12.474 L167.291323,13.644 L168.131323,18.684 L169.931323,18.684 L168.311323,8.87401 L166.511323,8.87401 L164.201323,15.714 L161.921323,8.87401 L160.121323,8.87401 L158.411323,18.654 L160.241323,18.654 L161.321323,12.474 L163.391323,18.654 L165.041323,18.654 L167.111323,12.474 Z M124.061323,29.904 C124.401323,29.424 124.571323,28.894 124.571323,28.314 C124.571323,27.714 124.421323,27.164 124.121323,26.664 C123.861323,26.224 123.491323,25.904 123.011323,25.704 C122.571323,25.544 122.121323,25.464 121.661323,25.464 L120.701323,25.434 L118.721323,25.434 L118.721323,35.244 L120.581323,35.244 L120.581323,31.104 L120.731323,31.104 L122.951323,35.244 L124.991323,35.244 L122.681323,30.894 C123.261323,30.714 123.731323,30.384 124.091323,29.904 L124.061323,29.904 Z M122.381323,29.034 C122.141323,29.174 121.891323,29.244 121.631323,29.244 C121.471323,29.244 121.311323,29.244 121.151323,29.244 L120.551323,29.244 L120.551323,27.264 L121.631323,27.264 C121.791323,27.284 121.941323,27.314 122.081323,27.354 C122.281323,27.414 122.431323,27.534 122.531323,27.714 C122.651323,27.874 122.711323,28.054 122.711323,28.254 C122.751323,28.574 122.651323,28.834 122.411323,29.034 L122.381323,29.034 Z M132.011323,29.904 C132.331323,29.404 132.491323,28.864 132.491323,28.284 C132.491323,27.704 132.341323,27.164 132.041323,26.664 C131.781323,26.224 131.421323,25.904 130.961323,25.704 C130.521323,25.544 130.061323,25.464 129.581323,25.464 C129.301323,25.444 128.981323,25.434 128.621323,25.434 L126.641323,25.434 L126.641323,35.244 L128.501323,35.244 L128.501323,31.104 L128.681323,31.104 L130.901323,35.244 L132.941323,35.244 L130.631323,30.894 C131.191323,30.714 131.651323,30.384 132.011323,29.904 Z M130.331323,29.034 C130.091323,29.174 129.841323,29.244 129.581323,29.244 C129.421323,29.244 129.251323,29.244 129.071323,29.244 L128.471323,29.244 L128.471323,27.264 L129.581323,27.264 C129.741323,27.284 129.891323,27.314 130.031323,27.354 C130.231323,27.414 130.381323,27.534 130.481323,27.714 C130.601323,27.874 130.661323,28.054 130.661323,28.254 C130.681323,28.574 130.571323,28.834 130.331323,29.034 Z M106.541323,29.934 L106.331323,29.844 L106.541323,29.694 C106.761323,29.494 106.941323,29.264 107.081323,29.004 C107.241323,28.684 107.321323,28.344 107.321323,27.984 C107.321323,27.424 107.141323,26.924 106.781323,26.484 C106.681323,26.384 106.581323,26.284 106.481323,26.184 C106.161323,25.924 105.791323,25.744 105.371323,25.644 C105.231323,25.604 105.081323,25.574 104.921323,25.554 C104.421323,25.494 103.911323,25.464 103.391323,25.464 L101.891323,25.464 L101.891323,35.274 L105.011323,35.274 C105.551323,35.274 106.061323,35.164 106.541323,34.944 C107.001323,34.704 107.361323,34.354 107.621323,33.894 C107.901323,33.454 108.041323,32.964 108.041323,32.424 C108.061323,31.884 107.921323,31.394 107.621323,30.954 C107.341323,30.514 106.981323,30.174 106.541323,29.934 Z M103.751323,27.234 L104.231323,27.234 C104.491323,27.214 104.741323,27.254 104.981323,27.354 C105.061323,27.394 105.141323,27.444 105.221323,27.504 C105.441323,27.684 105.551323,27.934 105.551323,28.254 C105.551323,28.554 105.431323,28.804 105.191323,29.004 C105.131323,29.064 105.061323,29.114 104.981323,29.154 C104.721323,29.254 104.451323,29.304 104.171323,29.304 L103.751323,29.304 L103.751323,27.234 Z M105.821323,33.234 C105.561323,33.394 105.281323,33.474 104.981323,33.474 C104.741323,33.494 104.491323,33.504 104.231323,33.504 L103.751323,33.504 L103.751323,30.954 L104.141323,30.954 C104.421323,30.954 104.701323,30.974 104.981323,31.014 C105.261323,31.054 105.511323,31.154 105.731323,31.314 C106.071323,31.554 106.231323,31.884 106.211323,32.304 C106.231323,32.664 106.101323,32.954 105.821323,33.174 L105.821323,33.234 Z M160.181323,31.584 C160.201323,32.044 160.151323,32.494 160.031323,32.934 C159.931323,33.174 159.771323,33.364 159.551323,33.504 C159.291323,33.664 159.001323,33.734 158.681323,33.714 C158.401323,33.734 158.141323,33.674 157.901323,33.534 C157.681323,33.414 157.521323,33.234 157.421323,32.994 C157.301323,32.614 157.251323,32.224 157.271323,31.824 L157.271323,25.434 L155.411323,25.434 L155.411323,31.284 C155.351323,32.144 155.461323,32.974 155.741323,33.774 C156.001323,34.294 156.381323,34.704 156.881323,35.004 C157.461323,35.344 158.081323,35.504 158.741323,35.484 C159.221323,35.504 159.681323,35.424 160.121323,35.244 C160.561323,35.064 160.931323,34.804 161.231323,34.464 C161.531323,34.124 161.751323,33.744 161.891323,33.324 C162.031323,32.644 162.081323,31.964 162.041323,31.284 L162.041323,25.434 L160.181323,25.434 L160.181323,31.584 Z M137.441323,25.434 L133.631323,35.244 L135.581323,35.244 L136.361323,33.204 L140.381323,33.204 L141.131323,35.244 L143.081323,35.244 L139.301323,25.434 L137.441323,25.434 Z M137.051323,31.434 L138.401323,28.044 L139.721323,31.434 L137.051323,31.434 Z M131.471323,16.854 L127.991323,16.854 L127.991323,14.244 L131.471323,14.244 L131.471323,12.444 L127.991323,12.444 L127.991323,10.704 L131.471323,10.704 L131.471323,8.87401 L126.131323,8.87401 L126.131323,18.654 L131.471323,18.654 L131.471323,16.854 Z M107.501323,8.87401 L105.611323,8.87401 L101.801323,18.684 L103.751323,18.684 L104.531323,16.644 L108.551323,16.644 L109.331323,18.684 L111.251323,18.684 L107.501323,8.87401 Z M105.251323,14.844 L106.541323,11.484 L107.861323,14.844 L105.251323,14.844 Z M141.761323,10.434 C142.341323,10.454 142.891323,10.584 143.411323,10.824 C143.931323,11.064 144.381323,11.404 144.761323,11.844 L146.081323,10.584 C145.541323,9.96401 144.891323,9.48401 144.131323,9.14401 C143.391323,8.80401 142.611323,8.63401 141.791323,8.63401 C140.851323,8.61401 139.961323,8.83401 139.121323,9.29401 C138.861323,9.43401 138.621323,9.59401 138.401323,9.77401 C137.921323,10.154 137.521323,10.604 137.201323,11.124 C136.741323,11.924 136.521323,12.794 136.541323,13.734 C136.521323,14.434 136.631323,15.104 136.871323,15.744 C137.131323,16.384 137.511323,16.954 138.011323,17.454 C138.171323,17.614 138.301323,17.734 138.401323,17.814 C138.881323,18.194 139.411323,18.474 139.991323,18.654 C140.571323,18.834 141.161323,18.914 141.761323,18.894 C142.521323,18.914 143.251323,18.774 143.951323,18.474 C144.731323,18.114 145.421323,17.624 146.021323,17.004 L144.761323,15.684 C144.321323,16.144 143.821323,16.514 143.261323,16.794 C142.781323,17.014 142.281323,17.114 141.761323,17.094 C141.161323,17.094 140.591323,16.954 140.051323,16.674 C139.531323,16.374 139.121323,15.964 138.821323,15.444 C138.521323,14.904 138.381323,14.334 138.401323,13.734 C138.381323,13.294 138.451323,12.874 138.611323,12.474 C138.791323,12.054 139.041323,11.684 139.361323,11.364 C139.681323,11.044 140.041323,10.804 140.441323,10.644 C140.861323,10.484 141.291323,10.404 141.731323,10.404 L141.761323,10.434 Z M114.551323,31.554 C114.571323,31.994 114.521323,32.434 114.401323,32.874 C114.301323,33.114 114.141323,33.304 113.921323,33.444 C113.661323,33.604 113.381323,33.684 113.081323,33.684 C112.781323,33.684 112.511323,33.614 112.271323,33.474 C112.051323,33.354 111.891323,33.174 111.791323,32.934 C111.671323,32.554 111.621323,32.164 111.641323,31.764 L111.641323,25.434 L109.781323,25.434 L109.781323,31.284 C109.721323,32.144 109.831323,32.974 110.111323,33.774 C110.371323,34.294 110.751323,34.704 111.251323,35.004 C111.831323,35.344 112.451323,35.504 113.111323,35.484 C113.591323,35.504 114.051323,35.424 114.491323,35.244 C114.931323,35.064 115.301323,34.794 115.601323,34.434 C115.901323,34.134 116.121323,33.774 116.261323,33.354 C116.401323,32.674 116.451323,31.984 116.411323,31.284 L116.411323,25.434 L114.551323,25.434 L114.551323,31.554 Z M140.891323,22.044 L138.731323,22.044 L137.141323,24.654 L138.431323,24.654 L140.891323,22.044 Z M121.481323,18.444 L121.661323,18.354 C122.141323,18.174 122.561323,17.914 122.921323,17.574 C123.381323,17.114 123.721323,16.584 123.941323,15.984 C124.201323,15.324 124.331323,14.634 124.331323,13.914 C124.351323,12.934 124.131323,12.004 123.671323,11.124 C123.271323,10.364 122.691323,9.78401 121.931323,9.38401 L121.661323,9.26401 C120.721323,8.96401 119.751323,8.83401 118.751323,8.87401 L116.561323,8.87401 L116.561323,18.654 L118.811323,18.654 C119.711323,18.694 120.601323,18.624 121.481323,18.444 Z M118.421323,10.674 L119.051323,10.674 C120.211323,10.674 121.051323,10.924 121.571323,11.424 L121.661323,11.544 C122.221323,12.204 122.481323,12.974 122.441323,13.854 C122.461323,14.454 122.341323,15.024 122.081323,15.564 C121.961323,15.784 121.821323,15.984 121.661323,16.164 C121.501323,16.324 121.321323,16.454 121.121323,16.554 C120.521323,16.794 119.901323,16.894 119.261323,16.854 L118.391323,16.854 L118.421323,10.674 Z M171.491323,18.684 L176.861323,18.684 L176.861323,16.854 L173.351323,16.854 L173.351323,14.244 L176.861323,14.244 L176.861323,12.444 L173.351323,12.444 L173.351323,10.704 L176.861323,10.704 L176.861323,8.87401 L171.491323,8.87401 L171.491323,18.684 Z" id="Shape"></path>
            </g>
        </g>
    </g>
</svg>